<?xml version="1.0" encoding="utf-8"?>
<!-- Generator: Adobe Illustrator 26.5.0, SVG Export Plug-In . SVG Version: 6.00 Build 0)  -->
<svg version="1.1" id="Layer_1" xmlns="http://www.w3.org/2000/svg" xmlns:xlink="http://www.w3.org/1999/xlink" x="0px" y="0px"
	 viewBox="0 0 2048 2048" style="enable-background:new 0 0 2048 2048;" xml:space="preserve">
<style type="text/css">
	.st0{fill:#F2F2F2;}
</style>
<path class="st0" d="M1023.9,268.3c246.2,0,275.4,1.1,372.2,5.4c90,4,138.6,19.1,171,31.7c42.8,16.6,73.8,36.7,105.8,68.8
	c32.4,32.4,52.2,63,69.1,105.8c12.6,32.4,27.7,81.4,31.7,171c4.3,97.2,5.4,126.4,5.4,372.2s-1.1,275.4-5.4,372.2
	c-4,90-19.1,138.6-31.7,171c-16.6,42.8-36.7,73.8-68.8,105.8c-32.4,32.4-63,52.2-105.8,69.1c-32.4,12.6-81.4,27.7-171,31.7
	c-97.2,4.3-126.4,5.4-372.2,5.4s-275.4-1.1-372.2-5.4c-90-4-138.6-19.1-171-31.7c-42.8-16.6-73.8-36.7-105.8-68.8
	c-32.4-32.4-52.2-63-69.1-105.8c-12.6-32.4-27.7-81.4-31.7-171c-4.3-97.2-5.4-126.4-5.4-372.2s1.1-275.4,5.4-372.2
	c4-90,19.1-138.6,31.7-171c16.6-42.8,36.7-73.8,68.8-105.8c32.4-32.4,63-52.2,105.8-69.1c32.4-12.6,81.4-27.7,171-31.7
	C748.5,269.4,777.7,268.3,1023.9,268.3z M1023.9,102.4c-250.2,0-281.5,1.1-379.8,5.4c-97.9,4.3-165.2,20.2-223.6,42.8
	c-60.8,23.8-112.3,55.1-163.4,106.6c-51.5,51.1-82.8,102.6-106.6,163.1C127.8,479,112,545.9,107.7,643.9
	c-4.3,98.6-5.4,130-5.4,380.2s1.1,281.5,5.4,379.8c4.3,97.9,20.2,165.2,42.8,223.6c23.8,60.8,55.1,112.3,106.6,163.4
	c51.1,51.1,102.6,82.8,163.1,106.2c58.7,22.7,125.6,38.5,223.6,42.8c98.3,4.3,129.6,5.4,379.8,5.4s281.5-1.1,379.8-5.4
	c97.9-4.3,165.2-20.2,223.6-42.8c60.5-23.4,112-55.1,163.1-106.2s82.8-102.6,106.2-163.1c22.7-58.7,38.5-125.6,42.8-223.6
	c4.3-98.3,5.4-129.6,5.4-379.8s-1.1-281.5-5.4-379.8c-4.3-97.9-20.2-165.2-42.8-223.6c-22.7-61.2-54-112.7-105.5-163.8
	c-51.1-51.1-102.6-82.8-163.1-106.2c-58.7-22.7-125.6-38.5-223.6-42.8C1305.5,103.5,1274.1,102.4,1023.9,102.4L1023.9,102.4
	L1023.9,102.4z"/>
<path class="st0" d="M1023.9,550.6c-261.4,0-473.4,212-473.4,473.4s212,473.4,473.4,473.4s473.4-212,473.4-473.4
	S1285.3,550.6,1023.9,550.6z M1023.9,1331.1c-169.6,0-307.1-137.5-307.1-307.1s137.5-307.1,307.1-307.1S1331,854.4,1331,1024
	S1193.5,1331.1,1023.9,1331.1L1023.9,1331.1z"/>
<path class="st0" d="M1626.6,531.9c0,61-49.5,110.5-110.5,110.5s-110.5-49.5-110.5-110.5s49.5-110.5,110.5-110.5
	S1626.6,470.8,1626.6,531.9z"/>
</svg>
