<?xml version="1.0" encoding="utf-8"?>
<!-- Generator: Adobe Illustrator 26.5.0, SVG Export Plug-In . SVG Version: 6.00 Build 0)  -->
<svg version="1.1" id="Layer_1" xmlns="http://www.w3.org/2000/svg" xmlns:xlink="http://www.w3.org/1999/xlink" x="0px" y="0px"
	 viewBox="0 0 2048 2048" style="enable-background:new 0 0 2048 2048;" xml:space="preserve">
<style type="text/css">
	.st0{fill:#F2F2F2;}
</style>
<path class="st0" d="M1945.6,516.3c-67.7,30.2-140.8,50.4-217.1,59.4c78.1-46.8,137.9-121,166.3-209.2
	c-73.1,43.2-154.1,74.9-240.1,91.8c-69.1-73.4-167.4-119.2-276.1-119.2c-208.8,0-378,169.2-378,378c0,29.5,3.2,58.3,9.7,86
	C696,787.4,417.4,636.9,230.9,408c-32.4,55.8-51.1,121-51.1,190.1c0,131,66.6,247,168.1,314.6c-61.9-1.8-120.2-19.1-171.4-47.2
	c0,1.4,0,3.2,0,4.7c0,183.2,130.3,336.2,303.5,370.8c-31.7,8.6-65.2,13.3-99.7,13.3c-24.5,0-47.9-2.5-71.3-6.8
	c48.2,150.1,187.9,259.6,353.2,262.8c-129.6,101.5-292.3,162-469.8,162c-30.6,0-60.5-1.8-90.4-5.4
	c167.8,107.6,366.5,169.9,580,169.9c695.5,0,1076-576.4,1076-1076c0-16.6-0.4-32.8-1.1-49C1830.7,658.9,1894.8,592.3,1945.6,516.3
	L1945.6,516.3z"/>
</svg>
