<?xml version="1.0" encoding="utf-8"?>
<!-- Generator: Adobe Illustrator 26.5.0, SVG Export Plug-In . SVG Version: 6.00 Build 0)  -->
<svg version="1.1" id="Layer_1" xmlns="http://www.w3.org/2000/svg" xmlns:xlink="http://www.w3.org/1999/xlink" x="0px" y="0px"
	 viewBox="0 0 2048 2048" style="enable-background:new 0 0 2048 2048;" xml:space="preserve">
<style type="text/css">
	.st0{fill:#F2F2F2;}
</style>
<path class="st0" d="M1927.3,655.3c0,0-18-127.1-73.4-182.9c-70.2-73.4-148.7-73.8-184.7-78.1c-257.8-18.7-644.8-18.7-644.8-18.7
	h-0.7c0,0-387,0-644.8,18.7c-36,4.3-114.5,4.7-184.7,78.1c-55.4,55.8-73.1,182.9-73.1,182.9s-18.4,149-18.4,298.4v139.7
	c0,149,18.4,298.4,18.4,298.4s18,127.1,73.1,182.9c70.2,73.4,162.4,70.9,203.4,78.8c147.6,14,626.8,18.4,626.8,18.4
	s387.4-0.7,645.1-19.1c36-4.3,114.5-4.7,184.7-78.1c55.4-55.8,73.4-182.9,73.4-182.9s18.4-149,18.4-298.4V953.8
	C1945.6,804.7,1927.3,655.3,1927.3,655.3L1927.3,655.3z M833.6,1263V745l497.9,259.9L833.6,1263L833.6,1263z"/>
</svg>
